# xmcd
#
# Track frame offsets: 
#        150
#        29624
#        49772
#        67574
#        98050
#        119160
#        191054
#        235562
#        255371
#
# Disc length: 4003 seconds
#
# Revision: 0
# Processed by: cddbd v1.5.2PL0 Copyright (c) Steve Scherf et al.
# Submitted via: ExactAudioCopy v1.0b4
#
DISCID=700fa109
DTITLE=Ghost Town Blues Band - Backstage Pass
DYEAR=2018
DGENRE=Blues
TTITLE0=Come Together
TTITLE1=Tip Of My Hat
TTITLE2=Shine
TTITLE3=Givin' It All Away
TTITLE4=Big Shirley
TTITLE5=Whipping Post
TTITLE6=I Get High
TTITLE7=One More Whiskey
TTITLE8=I Need More Love
EXTD=
EXTT0=
EXTT1=
EXTT2=
EXTT3=
EXTT4=
EXTT5=
EXTT6=
EXTT7=
EXTT8=
PLAYORDER=
